<svg width="105" height="106" viewBox="0 0 105 106" fill="none" xmlns="http://www.w3.org/2000/svg">
<path d="M92.8088 85.996C98.1942 79.5164 101.94 71.835 103.729 63.6016C105.518 55.3683 105.297 46.8252 103.086 38.695C100.875 30.5649 96.7386 23.0868 91.0262 16.8935C85.3138 10.7002 78.1938 5.97379 70.2685 3.11416C62.3432 0.254518 53.8457 -0.654239 45.4949 0.46476C37.144 1.58376 29.1856 4.6976 22.2927 9.54286C15.3998 14.3881 9.77531 20.8223 5.89497 28.301C2.01464 35.7797 -0.00735972 44.083 2.01287e-05 52.5085C0.00285203 64.7567 4.31906 76.6126 12.1913 85.996L12.1163 86.0597C12.3788 86.3747 12.6788 86.6447 12.9488 86.956C13.2863 87.3422 13.65 87.706 13.9988 88.081C15.0488 89.221 16.1288 90.316 17.2613 91.3435C17.6063 91.6585 17.9625 91.951 18.3113 92.251C19.5113 93.286 20.745 94.2685 22.0238 95.1835C22.1888 95.296 22.3388 95.4422 22.5038 95.5585V95.5135C31.2867 101.694 41.7642 105.011 52.5038 105.011C63.2434 105.011 73.7209 101.694 82.5038 95.5135V95.5585C82.6688 95.4422 82.815 95.296 82.9838 95.1835C84.2588 94.2647 85.4963 93.286 86.6963 92.251C87.045 91.951 87.4013 91.6547 87.7463 91.3435C88.8788 90.3122 89.9588 89.221 91.0088 88.081C91.3575 87.706 91.7175 87.3422 92.0588 86.956C92.325 86.6447 92.6288 86.3747 92.8913 86.056L92.8088 85.996ZM52.5 22.5085C55.8376 22.5085 59.1002 23.4982 61.8753 25.3524C64.6504 27.2067 66.8133 29.8422 68.0905 32.9257C69.3677 36.0092 69.7019 39.4022 69.0508 42.6756C68.3996 45.949 66.7925 48.9559 64.4324 51.3159C62.0724 53.6759 59.0656 55.2831 55.7922 55.9342C52.5187 56.5853 49.1257 56.2512 46.0422 54.9739C42.9587 53.6967 40.3232 51.5338 38.469 48.7587C36.6147 45.9836 35.625 42.721 35.625 39.3835C35.625 34.9079 37.4029 30.6157 40.5676 27.451C43.7323 24.2864 48.0245 22.5085 52.5 22.5085ZM22.5263 85.996C22.5913 81.0721 24.5923 76.3718 28.0964 72.912C31.6004 69.4522 36.3257 67.511 41.25 67.5085H63.75C68.6743 67.511 73.3996 69.4522 76.9037 72.912C80.4077 76.3718 82.4087 81.0721 82.4738 85.996C74.2494 93.4072 63.571 97.5088 52.5 97.5088C41.429 97.5088 30.7506 93.4072 22.5263 85.996Z" fill="#D4D7E5"/>
</svg>
